<svg width="26" height="26" viewBox="0 0 26 26" fill="none" xmlns="http://www.w3.org/2000/svg">
<path fill-rule="evenodd" clip-rule="evenodd" d="M13.0266 6.56541L13.7988 5.73571C15.9314 3.44454 19.389 3.44454 21.5216 5.73571C23.6542 8.02687 23.6542 11.7416 21.5216 14.0327L14.5711 21.5001C13.7181 22.4165 12.335 22.4165 11.482 21.5001L4.53151 14.0327C2.39892 11.7416 2.39892 8.02687 4.53151 5.7357C6.66409 3.44454 10.1217 3.44454 12.2543 5.73571L13.0266 6.56541ZM18.0738 6.28859C17.6557 6.28859 17.3167 6.62755 17.3167 7.04568C17.3167 7.46381 17.6557 7.80277 18.0738 7.80277C18.7707 7.80277 19.3356 8.3677 19.3356 9.06458C19.3356 9.4827 19.6746 9.82166 20.0927 9.82166C20.5108 9.82166 20.8498 9.4827 20.8498 9.06458C20.8498 7.53144 19.6069 6.28859 18.0738 6.28859Z" fill="white" fill-opacity="0.8"/>
</svg>
